<svg xmlns="http://www.w3.org/2000/svg" width="192" height="192" viewBox="0 0 192 192" fill="none">
  <rect width="192" height="192" rx="44" fill="#04111A"/>
  <rect x="12" y="12" width="168" height="168" rx="36" fill="url(#paint0_linear)" fill-opacity="0.16" stroke="#67E8F9" stroke-opacity="0.28"/>
  <path d="M55 122C55 104.879 68.8792 91 86 91H124C141.121 91 155 104.879 155 122V127H55V122Z" fill="#67E8F9" fill-opacity="0.16"/>
  <path d="M57 73C57 50.3563 75.3563 32 98 32C120.644 32 139 50.3563 139 73C139 95.6437 120.644 114 98 114C75.3563 114 57 95.6437 57 73Z" fill="url(#paint1_linear)"/>
  <path d="M97.9999 46L104.528 64.8668H124.769L108.387 76.5264L114.915 95.3932L97.9999 83.7336L81.0846 95.3932L87.6127 76.5264L71.2305 64.8668H91.4718L97.9999 46Z" fill="#03131D"/>
  <defs>
    <linearGradient id="paint0_linear" x1="23" y1="28" x2="170" y2="163" gradientUnits="userSpaceOnUse">
      <stop stop-color="#67E8F9"/>
      <stop offset="1" stop-color="#0EA5E9"/>
    </linearGradient>
    <linearGradient id="paint1_linear" x1="64" y1="38" x2="136" y2="107" gradientUnits="userSpaceOnUse">
      <stop stop-color="#67E8F9"/>
      <stop offset="1" stop-color="#0284C7"/>
    </linearGradient>
  </defs>
</svg>