<svg xmlns="http://www.w3.org/2000/svg" width="1280" height="720" viewBox="0 0 1280 720" fill="none">
  <rect width="1280" height="720" fill="#021018"/>
  <rect width="1280" height="720" fill="url(#paint0_radial)" fill-opacity="0.55"/>
  <rect x="54" y="52" width="236" height="616" rx="32" fill="#051A25" stroke="#164E63"/>
  <rect x="92" y="112" width="160" height="18" rx="9" fill="#67E8F9" fill-opacity="0.85"/>
  <rect x="92" y="170" width="160" height="54" rx="20" fill="#0C2E40" stroke="#22D3EE" stroke-opacity="0.4"/>
  <rect x="92" y="244" width="160" height="54" rx="20" fill="#0B2331"/>
  <rect x="92" y="318" width="160" height="54" rx="20" fill="#0B2331"/>
  <rect x="92" y="392" width="160" height="54" rx="20" fill="#0B2331"/>
  <rect x="330" y="76" width="896" height="84" rx="28" fill="#051A25" stroke="#164E63"/>
  <rect x="368" y="104" width="232" height="22" rx="11" fill="#E0FBFF" fill-opacity="0.92"/>
  <rect x="1034" y="98" width="54" height="40" rx="20" fill="#0B2331"/>
  <rect x="1102" y="98" width="84" height="40" rx="20" fill="#0EA5E9"/>
  <rect x="330" y="194" width="576" height="214" rx="36" fill="#051A25" stroke="#164E63"/>
  <rect x="948" y="194" width="278" height="214" rx="36" fill="#051A25" stroke="#164E63"/>
  <rect x="330" y="444" width="278" height="188" rx="36" fill="#051A25" stroke="#164E63"/>
  <rect x="640" y="444" width="586" height="188" rx="36" fill="#051A25" stroke="#164E63"/>
  <circle cx="1080" cy="260" r="54" fill="#0EA5E9" fill-opacity="0.22"/>
  <rect x="992" y="340" width="188" height="18" rx="9" fill="#E0FBFF" fill-opacity="0.88"/>
  <rect x="992" y="372" width="148" height="14" rx="7" fill="#67E8F9" fill-opacity="0.4"/>
  <defs>
    <radialGradient id="paint0_radial" cx="0" cy="0" r="1" gradientUnits="userSpaceOnUse" gradientTransform="translate(640 0) rotate(90) scale(720 880.877)">
      <stop stop-color="#0EA5E9" stop-opacity="0.34"/>
      <stop offset="1" stop-color="#021018" stop-opacity="0"/>
    </radialGradient>
  </defs>
</svg>